<svg id="visual" viewBox="0 0 900 600" width="900" height="600" xmlns="http://www.w3.org/2000/svg" xmlns:xlink="http://www.w3.org/1999/xlink" version="1.1"><g transform="translate(441.2031380533862 298.2658239131631)"><path d="M89.7 -146.7C115.3 -123.2 134.4 -96.7 153.8 -66.6C173.3 -36.5 193 -3 189.1 27.5C185.2 57.9 157.6 85.3 130.5 108.8C103.5 132.3 76.9 152 44.7 169.3C12.5 186.5 -25.4 201.2 -57.9 193.4C-90.4 185.6 -117.4 155.3 -136 123.6C-154.6 91.8 -164.9 58.5 -169.5 24.6C-174.1 -9.4 -173 -43.9 -160.8 -74.5C-148.5 -105.1 -125.1 -131.6 -96.4 -153.7C-67.8 -175.8 -33.9 -193.4 -0.9 -192C32.1 -190.6 64.2 -170.2 89.7 -146.7" fill="#BB004B"></path></g></svg>